:version 1.10
:name ASF
:units
  mass 1
  length 1
  angle deg
:documentation
  ASF file generated by Kaydara
:root
  axis xyz
  order  tx ty tz rx ry rz
  position 0 0 0
  orientation 0 0 0
:bonedata
  begin
    id 1
    name RightUpLegDummy
    direction -0.65628 -0.754516 0.00165102
    length 4.76918
    axis 0 0 0 xyz
  end
  begin
    id 2
    name RightUpLeg
    direction -0.145584 -0.923362 0.355256
    length 17.9961
    axis -24.7611 -13.1006 1.78531 xyz
    dof rx ry rz
  end
  begin
    id 3
    name RightLeg
    direction 0.263379 0.172355 -0.949171
    length 13.3386
    axis 89.6202 -21.1929 12.3855 xyz
    dof rx ry rz
  end
  begin
    id 4
    name RightFoot
    direction 0.224283 -0.968777 -0.105675
    length 5.86697
    axis 56.995 -39.6905 17.3365 xyz
    dof rx ry rz
  end
  begin
    id 5
    name RightToes
    direction -0.0806345 -0.9037 0.420506
    length 4.75197
    axis 146.825 -39.7828 17.6019 xyz
    dof rx ry rz
  end
  begin
    id 6
    name SpineDummy
    direction -3.39852e-014 1 9.33296e-014
    length 8.13779
    axis 0 0 0 xyz
  end
  begin
    id 7
    name Spine
    direction -0.156609 0.733703 0.661176
    length 7.14978
    axis 41.2365 5.68757 17.0844 xyz
    dof rx ry rz
  end
  begin
    id 8
    name Spine1
    direction 0 0 0
    length 0
    axis 42.8809 47.8308 -3.36039 xyz
    dof rx ry rz
  end
  begin
    id 9
    name HEadDummy
    direction 0.546431 0.701947 0.456819
    length 3.55512
    axis 42.8809 47.8308 -3.36039 xyz
  end
  begin
    id 10
    name HEad
    direction 0.23444 0.828559 0.508457
    length 7.35827
    axis 51.1864 49.2662 27.4903 xyz
    dof rx ry rz
  end
  begin
    id 11
    name LeftShoulder1Dummy
    direction 0.431183 0.475873 -0.766568
    length 2.49352
    axis 42.8809 47.8308 -3.36039 xyz
  end
  begin
    id 12
    name LeftShoulder1
    direction 0.268187 -0.383402 -0.883786
    length 4.48604
    axis -119.517 0.106469 35.1736 xyz
    dof rx ry rz
  end
  begin
    id 13
    name LeftArm
    direction 0.380567 -0.703221 -0.600541
    length 10.1142
    axis -5.41825 36.2925 7.8293 xyz
    dof rx ry rz
  end
  begin
    id 14
    name LeftForeArm
    direction 0.541071 -0.732356 -0.413396
    length 9.39839
    axis 4.65387 33.7604 7.81644 xyz
    dof rx ry rz
  end
  begin
    id 15
    name LeftHand
    direction 0.847511 -0.389379 -0.360707
    length 3.66142
    axis 7.65593 21.1436 -24.6758 xyz
    dof rx ry rz
  end
  begin
    id 16
    name RightShoulderDummy
    direction -0.692546 0.541855 0.476208
    length 2.49352
    axis 42.8809 47.8308 -3.36039 xyz
  end
  begin
    id 17
    name RightShoulder
    direction -0.870808 -0.316653 0.376065
    length 4.48602
    axis 141.571 51.133 -100.254 xyz
    dof rx ry rz
  end
  begin
    id 18
    name RightArm
    direction 0.366897 -0.87275 0.322015
    length 10.1142
    axis 92.3258 71.2036 138.917 xyz
    dof rx ry rz
  end
  begin
    id 19
    name RightForeArm
    direction 0.702487 -0.694568 0.155197
    length 9.39835
    axis 153.863 41.5092 -176.604 xyz
    dof rx ry rz
  end
  begin
    id 20
    name RightHand
    direction 0.79502 -0.601276 0.0800636
    length 3.66142
    axis 154.247 4.59222 142.9 xyz
    dof rx ry rz
  end
  begin
    id 21
    name LeftUpLegDummy
    direction 0.65628 -0.754516 0.00165102
    length 4.76919
    axis 0 0 0 xyz
  end
  begin
    id 22
    name LeftUpLeg
    direction -0.1277 -0.689368 0.713067
    length 17.9961
    axis -48.3385 -17.8675 0.791927 xyz
    dof rx ry rz
  end
  begin
    id 23
    name LeftLeg
    direction 0.109849 -0.991246 -0.0732378
    length 13.3386
    axis -2.05791 -7.30784 1.72042 xyz
    dof rx ry rz
  end
  begin
    id 24
    name LeftFoot
    direction 0.0448355 -0.272614 0.961078
    length 5.86697
    axis -18.7733 -7.89606 10.2113 xyz
    dof rx ry rz
  end
  begin
    id 25
    name LeftToes
    direction -0.18506 0.293668 0.937823
    length 4.75197
    axis 71.2267 -7.89606 10.2113 xyz
    dof rx ry rz
  end
:hierarchy
  begin
    root RightUpLegDummy SpineDummy LeftUpLegDummy
    RightUpLegDummy RightUpLeg
    RightUpLeg RightLeg
    RightLeg RightFoot
    RightFoot RightToes
    SpineDummy Spine
    Spine Spine1
    Spine1 HEadDummy LeftShoulder1Dummy RightShoulderDummy
    HEadDummy HEad
    LeftShoulder1Dummy LeftShoulder1
    LeftShoulder1 LeftArm
    LeftArm LeftForeArm
    LeftForeArm LeftHand
    RightShoulderDummy RightShoulder
    RightShoulder RightArm
    RightArm RightForeArm
    RightForeArm RightHand
    LeftUpLegDummy LeftUpLeg
    LeftUpLeg LeftLeg
    LeftLeg LeftFoot
    LeftFoot LeftToes
  end

:SAMPLES-PER-SECOND 30
:FULLY-SPECIFIED
:DEGREES
106
root  -3.94712 39.3989 15.7313 -10.882 4.16293 -1.8765
RightUpLeg  24.8404 5.19105 7.69302
RightLeg  -88.7787 -12.3338 0.179992
RightFoot  19.3712 5.62528 -16.9841
RightToes  -1.27222e-014 -6.36111e-015 6.36111e-015
Spine  -32.0582 -14.0042 -10.7999
Spine1  9.32982 -9.38396 39.0483
HEad  13.2917 -11.3231 -8.96205
LeftShoulder1  6.36111e-015 -1.33558e-015 6.49777e-015
LeftArm  21.1173 7.93275 4.80382
LeftForeArm  -11.2052 -40.4544 6.43318
LeftHand  -0.802022 -0.335351 -8.46606
RightShoulder  -4.77083e-015 -6.36111e-015 -3.18055e-015
RightArm  59.7461 -20.2314 -27.2668
RightForeArm  -25.6283 5.45912 -19.2833
RightHand  -0.116759 1.57266 -1.30836
LeftUpLeg  31.0011 12.8618 24.4243
LeftLeg  -3.64962 -7.14095 -1.11302
LeftFoot  9.17198 4.11066 -10.7035
LeftToes  9.54166e-015 4.2066e-011 -8.07781e-011
107
root  -4.0815 39.7015 16.7585 -9.53394 4.16409 -2.96867
RightUpLeg  27.5287 5.21977 9.32975
RightLeg  -93.4545 -11.5689 -0.633136
RightFoot  21.7365 5.32367 -16.8664
RightToes  -1.27222e-014 -6.36111e-015 6.36111e-015
Spine  -33.7879 -12.6897 -11.1927
Spine1  9.36614 -8.13431 36.8882
HEad  12.8655 -14.5207 -7.65732
LeftShoulder1  6.36111e-015 -1.33558e-015 6.49777e-015
LeftArm  19.1815 7.90378 7.6362
LeftForeArm  -8.63512 -39.2493 4.9633
LeftHand  -0.656364 0.122647 -8.41185
RightShoulder  -4.77083e-015 -6.36111e-015 -3.18055e-015
RightArm  62.8155 -19.6487 -27.2401
RightForeArm  -19.9134 -1.2021 -13.3297
RightHand  0.301877 0.721624 -3.42044
LeftUpLeg  31.9588 13.3273 25.8476
LeftLeg  -16.8648 -8.5497 -1.0126
LeftFoot  9.00401 4.28745 -11.2069
LeftToes  9.54166e-015 4.2066e-011 -8.07781e-011
108
root  -4.10457 39.6088 17.7862 -8.22501 4.27377 -4.25364
RightUpLeg  29.9535 5.76266 11.419
RightLeg  -96.7701 -10.7893 -0.61591
RightFoot  19.8175 5.45283 -16.7804
RightToes  -1.27222e-014 -6.36111e-015 6.36111e-015
Spine  -35.2703 -11.3936 -11.2026
Spine1  9.23566 -7.14401 35.5655
HEad  11.9491 -17.0094 -7.12035
LeftShoulder1  6.36111e-015 -1.33558e-015 6.49777e-015
LeftArm  19.0573 7.23546 8.97554
LeftForeArm  -7.44629 -39.2427 4.51191
LeftHand  -0.567719 0.371509 -8.27143
RightShoulder  -4.77083e-015 -6.36111e-015 -3.18055e-015
RightArm  66.3267 -18.3805 -23.5668
RightForeArm  -15.9547 -9.67523 -8.39522
RightHand  0.323599 0.917995 -3.92616
LeftUpLeg  32.149 14.0903 27.5293
LeftLeg  -26.9134 -8.60812 -1.32659
LeftFoot  9.49794 4.97774 -12.8337
LeftToes  9.54166e-015 4.2066e-011 -8.07781e-011
109
root  -4.03725 39.1867 18.7699 -7.46369 5.44383 -5.23976
RightUpLeg  31.9937 5.56981 12.8332
RightLeg  -98.5297 -10.1833 1.12631
RightFoot  15.587 6.04789 -17.1155
RightToes  -1.27222e-014 -6.36111e-015 6.36111e-015
Spine  -35.1889 -10.6654 -10.9299
Spine1  8.33919 -6.78528 34.9472
HEad  10.6384 -18.9021 -6.89799
LeftShoulder1  6.36111e-015 -1.33558e-015 6.49777e-015
LeftArm  19.4225 6.06092 8.59852
LeftForeArm  -7.06732 -39.0486 4.29822
LeftHand  -0.413573 0.781312 -7.96356
RightShoulder  -4.77083e-015 -6.36111e-015 -3.18055e-015
RightArm  69.8448 -17.9884 -20.1428
RightForeArm  -12.7542 -14.2391 -3.80501
RightHand  0.117393 1.32246 -2.89928
LeftUpLeg  30.4035 12.9773 26.32
LeftLeg  -29.4414 -8.0879 -1.93229
LeftFoot  11.8052 5.74971 -13.9899
LeftToes  9.54166e-015 4.2066e-011 -8.07781e-011
110
root  -3.92111 38.5898 19.6227 -7.8203 8.0069 -5.85671
RightUpLeg  33.8064 4.75186 13.9833
RightLeg  -98.4378 -10.2503 5.05382
RightFoot  11.4556 6.83795 -17.9188
RightToes  -1.27222e-014 -6.36111e-015 6.36111e-015
Spine  -32.6931 -9.92765 -9.6323
Spine1  7.91711 -6.77669 33.4267
HEad  7.0831 -21.597 -5.79275
LeftShoulder1  6.36111e-015 -1.33558e-015 6.49777e-015
LeftArm  17.0109 3.8917 5.78749
LeftForeArm  -6.69448 -37.2053 3.52763
LeftHand  -0.125478 1.56811 -7.5238
RightShoulder  -4.77083e-015 -6.36111e-015 -3.18055e-015
RightArm  70.8178 -18.7589 -26.4307
RightForeArm  -6.6657 -8.41782 2.0119
RightHand  -0.128657 1.79007 -1.55928
LeftUpLeg  26.8796 9.98341 22.3065
LeftLeg  -23.3959 -8.62418 -0.980324
LeftFoot  13.798 5.60596 -13.0202
LeftToes  9.54166e-015 4.2066e-011 -8.07781e-011
111
root  -3.73082 37.9738 20.4203 -8.82117 11.0414 -6.31508
RightUpLeg  34.3987 2.66148 13.962
RightLeg  -94.8291 -12.0892 7.524
RightFoot  7.39828 6.98287 -17.6087
RightToes  -1.27222e-014 -6.36111e-015 6.36111e-015
Spine  -29.7038 -8.51846 -7.35014
Spine1  10.1716 -6.24021 30.8721
HEad  0.241303 -25.7362 -3.15212
LeftShoulder1  6.36111e-015 -1.33558e-015 6.49777e-015
LeftArm  11.3235 0.412984 0.446077
LeftForeArm  -6.61753 -35.1439 2.84127
LeftHand  0.0699912 2.03889 -7.0619
RightShoulder  -4.77083e-015 -6.36111e-015 -3.18055e-015
RightArm  72.9485 -22.524 -30.925
RightForeArm  -3.9548 -6.1076 4.74374
RightHand  -0.317403 2.36915 -0.822745
LeftUpLeg  23.6229 6.11024 17.8252
LeftLeg  -13.9051 -8.95954 -0.981975
LeftFoot  12.7114 4.18932 -10.0124
LeftToes  9.54166e-015 4.2066e-011 -8.07781e-011
112
root  -3.48821 37.5997 21.2691 -9.12477 13.6078 -6.01096
RightUpLeg  32.8723 1.27203 12.4375
RightLeg  -87.6465 -14.0253 7.81778
RightFoot  5.43297 5.76311 -14.7394
RightToes  -1.27222e-014 -6.36111e-015 6.36111e-015
Spine  -27.6563 -8.22519 -6.94741
Spine1  14.1184 -5.48665 29.2682
HEad  -7.39029 -29.4935 0.190792
LeftShoulder1  6.36111e-015 -1.33558e-015 6.49777e-015
LeftArm  6.40268 -3.21579 -6.34747
LeftForeArm  -8.24525 -35.9952 3.64812
LeftHand  -0.0923414 1.47553 -6.86803
RightShoulder  -4.77083e-015 -6.36111e-015 -3.18055e-015
RightArm  73.5475 -28.2358 -33.8814
RightForeArm  -2.43833 -5.24577 6.59231
RightHand  -0.527174 3.0509 0.0183322
LeftUpLeg  21.8451 4.91095 14.9915
LeftLeg  -7.43649 -8.11546 -1.11541
LeftFoot  9.1081 3.21854 -8.4101
LeftToes  9.54166e-015 4.2066e-011 -8.07781e-011
